<svg id="visual" viewBox="0 0 960 140" width="960" height="140" xmlns="http://www.w3.org/2000/svg" xmlns:xlink="http://www.w3.org/1999/xlink" version="1.1"><rect x="0" y="0" width="960" height="140" fill="#26608c"></rect><path d="M0 44L26.7 51.2C53.3 58.3 106.7 72.7 160 75.5C213.3 78.3 266.7 69.7 320 65.5C373.3 61.3 426.7 61.7 480 65.7C533.3 69.7 586.7 77.3 640 74.5C693.3 71.7 746.7 58.3 800 54.8C853.3 51.3 906.7 57.7 933.3 60.8L960 64L960 141L933.3 141C906.7 141 853.3 141 800 141C746.7 141 693.3 141 640 141C586.7 141 533.3 141 480 141C426.7 141 373.3 141 320 141C266.7 141 213.3 141 160 141C106.7 141 53.3 141 26.7 141L0 141Z" fill="#afddff"></path><path d="M0 114L26.7 107.7C53.3 101.3 106.7 88.7 160 88.7C213.3 88.7 266.7 101.3 320 101.2C373.3 101 426.7 88 480 82.3C533.3 76.7 586.7 78.3 640 84.2C693.3 90 746.7 100 800 99C853.3 98 906.7 86 933.3 80L960 74L960 141L933.3 141C906.7 141 853.3 141 800 141C746.7 141 693.3 141 640 141C586.7 141 533.3 141 480 141C426.7 141 373.3 141 320 141C266.7 141 213.3 141 160 141C106.7 141 53.3 141 26.7 141L0 141Z" fill="#ffffff"></path></svg>