<svg id="visual" viewBox="0 0 900 100" width="900" height="100" xmlns="http://www.w3.org/2000/svg" xmlns:xlink="http://www.w3.org/1999/xlink" version="1.1"><rect x="0" y="0" width="900" height="100" fill="#26608c"></rect><path d="M0 62L11.5 63.2C23 64.3 46 66.7 69 67.5C92 68.3 115 67.7 138.2 62.5C161.3 57.3 184.7 47.7 207.8 44C231 40.3 254 42.7 277 43.5C300 44.3 323 43.7 346 48.8C369 54 392 65 415.2 68.2C438.3 71.3 461.7 66.7 484.8 63.2C508 59.7 531 57.3 554 56.5C577 55.7 600 56.3 623 54.7C646 53 669 49 692.2 47C715.3 45 738.7 45 761.8 46.7C785 48.3 808 51.7 831 56.7C854 61.7 877 68.3 888.5 71.7L900 75L900 0L888.5 0C877 0 854 0 831 0C808 0 785 0 761.8 0C738.7 0 715.3 0 692.2 0C669 0 646 0 623 0C600 0 577 0 554 0C531 0 508 0 484.8 0C461.7 0 438.3 0 415.2 0C392 0 369 0 346 0C323 0 300 0 277 0C254 0 231 0 207.8 0C184.7 0 161.3 0 138.2 0C115 0 92 0 69 0C46 0 23 0 11.5 0L0 0Z" fill="#ffffff"></path><path d="M0 33L11.5 30.7C23 28.3 46 23.7 69 22C92 20.3 115 21.7 138.2 21.7C161.3 21.7 184.7 20.3 207.8 23.8C231 27.3 254 35.7 277 39.8C300 44 323 44 346 44.2C369 44.3 392 44.7 415.2 45.3C438.3 46 461.7 47 484.8 44.3C508 41.7 531 35.3 554 30.7C577 26 600 23 623 22.3C646 21.7 669 23.3 692.2 25.5C715.3 27.7 738.7 30.3 761.8 33.3C785 36.3 808 39.7 831 40.8C854 42 877 41 888.5 40.5L900 40L900 0L888.5 0C877 0 854 0 831 0C808 0 785 0 761.8 0C738.7 0 715.3 0 692.2 0C669 0 646 0 623 0C600 0 577 0 554 0C531 0 508 0 484.8 0C461.7 0 438.3 0 415.2 0C392 0 369 0 346 0C323 0 300 0 277 0C254 0 231 0 207.8 0C184.7 0 161.3 0 138.2 0C115 0 92 0 69 0C46 0 23 0 11.5 0L0 0Z" fill="#ffffff"></path></svg>